:version 1.10
:name ASF
:units
  mass 1
  length 1
  angle deg
:documentation
  ASF file generated by Kaydara
:root
  axis xyz
  order  tx ty tz rx ry rz
  position 0 0 0
  orientation 0 0 0
:bonedata
  begin
    id 1
    name RightUpLegDummy
    direction -0.718183 -0.695806 0.00816078
    length 4.904
    axis 0 0 0 xyz
  end
  begin
    id 2
    name RightUpLeg
    direction -0.0736652 -0.994202 0.0783343
    length 17.4976
    axis -2.72909 -3.00389 -4.00133 xyz
    dof rx ry rz
  end
  begin
    id 3
    name RightLeg
    direction -0.0389037 -0.994596 -0.0962598
    length 16.5821
    axis 3.95836 -18.5909 -4.46993 xyz
    dof rx ry rz
  end
  begin
    id 4
    name RightFoot
    direction -0.311643 -0.412678 0.855906
    length 3.77069
    axis -1.99483 -18.8351 -3.27644 xyz
    dof rx ry rz
  end
  begin
    id 5
    name RightToes
    direction -0.317852 0.0389852 0.947339
    length 3.85082
    axis -2.00228 -18.1713 -3.25211 xyz
    dof rx ry rz
  end
  begin
    id 6
    name SpineDummy
    direction 8.3039e-015 1 4.44677e-016
    length 4.6813
    axis 0 0 0 xyz
  end
  begin
    id 7
    name Spine
    direction -0.000262373 0.999988 0.00493267
    length 10.1015
    axis -0.00246081 0.00062579 0.0150362 xyz
    dof rx ry rz
  end
  begin
    id 8
    name Spine1
    direction 0 0 0
    length 0
    axis -0.00349562 0.000650293 0.0196666 xyz
    dof rx ry rz
  end
  begin
    id 9
    name HEadDummy
    direction -0.000343232 0.999999 0.00123745
    length 3.43865
    axis -0.00349562 0.000650293 0.0196666 xyz
  end
  begin
    id 10
    name HEad
    direction -0.0461221 0.980933 0.188796
    length 5.12695
    axis -0.00351404 -7.04812 0.0199272 xyz
    dof rx ry rz
  end
  begin
    id 11
    name LeftShoulder1Dummy
    direction 0.998904 -0.0399089 -0.0244534
    length 3.5433
    axis -0.00349562 0.000650293 0.0196666 xyz
  end
  begin
    id 12
    name LeftShoulder1
    direction 0.99951 1.64443e-005 0.0312999
    length 4.05031
    axis -0.00349562 0.000650293 0.0196666 xyz
    dof rx ry rz
  end
  begin
    id 13
    name LeftArm
    direction 0.984791 0.0515299 0.165927
    length 12.9126
    axis -64.823 -10.7743 5.20463 xyz
    dof rx ry rz
  end
  begin
    id 14
    name LeftForeArm
    direction 0.984968 0.0534808 0.16425
    length 10.8596
    axis -30.0462 -7.70601 1.87451 xyz
    dof rx ry rz
  end
  begin
    id 15
    name LeftHand
    direction 0.975871 0.0289682 0.216418
    length 6.62295
    axis -20.1348 -6.98077 1.86072 xyz
    dof rx ry rz
  end
  begin
    id 16
    name RightShoulderDummy
    direction -0.998877 -0.0405946 -0.0244307
    length 3.5433
    axis -0.00349562 0.000650293 0.0196666 xyz
  end
  begin
    id 17
    name RightShoulder
    direction -0.998933 -0.0249743 -0.0388558
    length 4.05031
    axis -0.0205316 -4.02113 1.41395 xyz
    dof rx ry rz
  end
  begin
    id 18
    name RightArm
    direction -0.997559 0.068664 0.0127103
    length 12.9638
    axis -67.3882 1.84188 -6.15987 xyz
    dof rx ry rz
  end
  begin
    id 19
    name RightForeArm
    direction -0.991508 0.0912848 0.0926241
    length 10.8312
    axis -22.1975 3.41087 -4.28711 xyz
    dof rx ry rz
  end
  begin
    id 20
    name RightHand
    direction -0.989262 0.0600788 0.133232
    length 6.57864
    axis -12.2911 2.17515 -4.39675 xyz
    dof rx ry rz
  end
  begin
    id 21
    name LeftUpLegDummy
    direction 0.718183 -0.695806 0.00816078
    length 4.904
    axis 0 0 0 xyz
  end
  begin
    id 22
    name LeftUpLeg
    direction 0.0831398 -0.99469 0.0606531
    length 17.4976
    axis -1.71016 2.29552 4.63832 xyz
    dof rx ry rz
  end
  begin
    id 23
    name LeftLeg
    direction 0.0498442 -0.991778 -0.117862
    length 16.5821
    axis 5.13757 15.5727 5.13348 xyz
    dof rx ry rz
  end
  begin
    id 24
    name LeftFoot
    direction 0.269026 -0.433896 0.85986
    length 3.77069
    axis -0.576502 15.6961 4.10267 xyz
    dof rx ry rz
  end
  begin
    id 25
    name LeftToes
    direction 0.277311 0.0251143 0.960452
    length 3.85048
    axis -0.576502 15.6961 4.10267 xyz
    dof rx ry rz
  end
:hierarchy
  begin
    root RightUpLegDummy SpineDummy LeftUpLegDummy
    RightUpLegDummy RightUpLeg
    RightUpLeg RightLeg
    RightLeg RightFoot
    RightFoot RightToes
    SpineDummy Spine
    Spine Spine1
    Spine1 HEadDummy LeftShoulder1Dummy RightShoulderDummy
    HEadDummy HEad
    LeftShoulder1Dummy LeftShoulder1
    LeftShoulder1 LeftArm
    LeftArm LeftForeArm
    LeftForeArm LeftHand
    RightShoulderDummy RightShoulder
    RightShoulder RightArm
    RightArm RightForeArm
    RightForeArm RightHand
    LeftUpLegDummy LeftUpLeg
    LeftUpLeg LeftLeg
    LeftLeg LeftFoot
    LeftFoot LeftToes
  end

:SAMPLES-PER-SECOND 30
:FULLY-SPECIFIED
:DEGREES
77
root  23.1301 38.4881 -6.70849 13.9999 -20.9449 0.418143
RightUpLeg  -35.8967 -12.2175 10.779
RightLeg  25.7545 5.91946 -6.27249
RightFoot  -8.01021 0.235922 -4.73089
RightToes  -5.82073e-011 -3.18055e-015 -2.98177e-016
Spine  16.3061 -1.77487 3.16963
Spine1  15.6933 -0.808744 -3.36916
HEad  -21.1913 3.12563 9.66053
LeftShoulder1  -3.88251e-019 9.70628e-020 -3.87848e-018
LeftArm  145.032 67.221 107.181
LeftForeArm  16.2338 -17.5103 -6.05453
LeftHand  -0.0635667 -2.80545 1.12102
RightShoulder  7.04996 10.301 33.5901
RightArm  67.2902 -54.765 -80.7669
RightForeArm  4.31899 7.17415 -5.28827
RightHand  -0.194068 -3.90964 -13.443
LeftUpLeg  -31.7609 10.7413 -11.9412
LeftLeg  28.1439 3.5249 10.9357
LeftFoot  -13.8109 -0.0242165 2.28553
LeftToes  1.2018e-011 -3.94675e-011 -1.33631e-011
78
root  23.1355 37.7832 -6.8777 17.458 -22.1641 -0.236962
RightUpLeg  -42.0906 -9.5493 11.9209
RightLeg  30.3041 5.33713 -7.75121
RightFoot  -9.88322 0.169157 -4.78201
RightToes  -5.82073e-011 -3.18055e-015 -2.98177e-016
Spine  17.2396 -1.33028 3.3551
Spine1  15.6105 -1.23994 -1.62977
HEad  -23.9241 3.77025 8.88265
LeftShoulder1  -3.88251e-019 9.70628e-020 -3.87848e-018
LeftArm  147.236 64.4285 107.855
LeftForeArm  17.5427 -17.6519 -6.34452
LeftHand  0.136598 -3.08833 -1.74662
RightShoulder  6.93178 10.2746 33.0336
RightArm  68.1051 -54.6549 -82.0048
RightForeArm  7.34054 6.40301 -5.50987
RightHand  -0.144634 -3.67098 -8.71069
LeftUpLeg  -38.6459 4.56797 -9.96552
LeftLeg  35.2485 3.90988 14.2714
LeftFoot  -15.832 -0.0517017 -0.389379
LeftToes  1.2018e-011 -3.94675e-011 -1.33631e-011
79
root  23.1349 36.7627 -7.0208 20.597 -23.6313 -1.31739
RightUpLeg  -48.7182 -5.82458 12.5221
RightLeg  37.0021 5.23391 -9.78527
RightFoot  -12.7266 0.0560148 -3.88409
RightToes  -5.82073e-011 -3.18055e-015 -2.98177e-016
Spine  18.9166 -0.63872 4.09909
Spine1  15.2799 -1.00689 -0.726309
HEad  -27.1849 4.22675 8.78025
LeftShoulder1  -3.88251e-019 9.70628e-020 -3.87848e-018
LeftArm  145.671 62.844 107.249
LeftForeArm  20.0307 -16.8942 -6.44844
LeftHand  0.322423 -3.78614 -4.07693
RightShoulder  6.88942 10.2653 32.8326
RightArm  69.5334 -54.8641 -82.8324
RightForeArm  11.3715 6.59692 -5.54326
RightHand  -0.124727 -2.65574 -4.73397
LeftUpLeg  -45.8998 -0.286204 -7.0067
LeftLeg  43.7015 1.95515 17.0461
LeftFoot  -17.9875 -0.145608 -2.29473
LeftToes  1.2018e-011 -3.94675e-011 -1.33631e-011
80
root  23.14 35.492 -7.14625 23.3257 -25.597 -2.63616
RightUpLeg  -55.3885 -2.44812 13.2224
RightLeg  44.6482 6.01091 -11.7454
RightFoot  -15.8128 -0.0220476 -3.09617
RightToes  -5.82073e-011 -3.18055e-015 -2.98177e-016
Spine  21.0204 -0.0743803 5.05176
Spine1  15.1784 -0.0403859 -1.44591
HEad  -30.6421 4.77721 8.65135
LeftShoulder1  -3.88251e-019 9.70628e-020 -3.87848e-018
LeftArm  143.05 62.307 105.561
LeftForeArm  19.4587 -16.3817 -6.36602
LeftHand  0.422629 -3.4613 -5.60904
RightShoulder  6.95433 10.2891 33.1193
RightArm  71.4628 -55.3873 -82.9604
RightForeArm  13.8225 8.30008 -5.19603
RightHand  -0.109322 -1.59417 -2.97122
LeftUpLeg  -52.6151 -2.02667 -4.64817
LeftLeg  51.7602 0.00559719 19.9495
LeftFoot  -20.6562 -0.269949 -3.255
LeftToes  1.2018e-011 -3.94675e-011 -1.33631e-011
81
root  23.1334 34.1108 -7.24692 26.0727 -27.2596 -3.73891
RightUpLeg  -62.1122 -0.268797 14.1866
RightLeg  52.0137 7.38689 -13.1631
RightFoot  -18.6878 -0.0788329 -2.88107
RightToes  -5.82073e-011 -3.18055e-015 -2.98177e-016
Spine  23.219 0.0409739 5.74727
Spine1  14.3657 0.741251 -2.7579
HEad  -33.243 5.42348 8.11957
LeftShoulder1  -3.88251e-019 9.70628e-020 -3.87848e-018
LeftArm  140.342 62.4209 102.984
LeftForeArm  18.229 -16.1388 -6.43647
LeftHand  0.396226 -2.85705 -5.69826
RightShoulder  7.03821 10.3356 33.4549
RightArm  73.2071 -56.0499 -82.1335
RightForeArm  14.1637 11.1096 -4.81613
RightHand  -0.136326 -1.00604 -3.33646
LeftUpLeg  -58.8928 -1.37351 -3.80339
LeftLeg  58.6255 -1.62982 23.0706
LeftFoot  -24.0238 -0.437681 -3.89016
LeftToes  1.2018e-011 -3.94675e-011 -1.33631e-011
82
root  23.0837 32.6791 -7.27893 28.835 -27.7777 -4.19397
RightUpLeg  -68.9851 0.529985 15.1434
RightLeg  59.1596 9.12123 -13.983
RightFoot  -21.7487 -0.140067 -2.8291
RightToes  -5.82073e-011 -3.18055e-015 -2.98177e-016
Spine  25.3867 -0.097972 6.11549
Spine1  12.3414 0.574391 -2.87607
HEad  -34.8439 5.85764 7.18069
LeftShoulder1  -3.88251e-019 9.70628e-020 -3.87848e-018
LeftArm  137.821 63.406 99.9424
LeftForeArm  18.1894 -15.8073 -6.50445
LeftHand  0.317524 -2.978 -4.45516
RightShoulder  6.95753 10.299 33.1134
RightArm  76.4011 -57.1095 -80.5343
RightForeArm  11.8106 14.5655 -5.25402
RightHand  -0.228072 -0.269791 -4.94761
LeftUpLeg  -65.1691 -0.431368 -4.04005
LeftLeg  64.8382 -3.92089 25.1856
LeftFoot  -27.8656 -0.699209 -4.7989
LeftToes  1.2018e-011 -3.94675e-011 -1.33631e-011
83
root  22.9778 31.2325 -7.18918 31.0487 -27.5519 -3.8998
RightUpLeg  -75.4461 0.547932 15.7055
RightLeg  66.2373 10.882 -14.6329
RightFoot  -25.2428 -0.188634 -2.58807
RightToes  -5.82073e-011 -3.18055e-015 -2.98177e-016
Spine  27.3893 -0.0683428 6.06913
Spine1  10.3677 -0.124732 -1.32928
HEad  -36.6434 6.01536 5.6984
LeftShoulder1  -3.88251e-019 9.70628e-020 -3.87848e-018
LeftArm  136.831 66.2832 96.3189
LeftForeArm  14.7672 -16.2021 -6.28337
LeftHand  0.234559 -2.63443 -3.4082
RightShoulder  6.61944 10.0892 31.7871
RightArm  83.315 -59.3623 -77.5236
RightForeArm  4.79198 18.659 -7.95474
RightHand  -0.387793 1.10426 -6.81207
LeftUpLeg  -70.9485 -0.416204 -4.59269
LeftLeg  70.8672 -6.72012 26.2442
LeftFoot  -31.3812 -1.05518 -6.0242
LeftToes  1.2018e-011 -3.94675e-011 -1.33631e-011
84
root  22.8302 29.9123 -6.95052 32.5882 -27.7414 -3.40983
RightUpLeg  -80.5834 0.77197 15.7556
RightLeg  72.4474 12.3639 -15.4142
RightFoot  -28.4312 -0.204939 -2.24522
RightToes  -5.82073e-011 -3.18055e-015 -2.98177e-016
Spine  29.961 -0.0527024 5.91677
Spine1  7.84815 -0.544589 -0.00800972
HEad  -38.3898 6.2146 4.0568
LeftShoulder1  -3.88251e-019 9.70628e-020 -3.87848e-018
LeftArm  134.387 71.4368 90.3276
LeftForeArm  8.69667 -16.9142 -6.19218
LeftHand  0.213915 -1.86673 -3.47624
RightShoulder  6.29354 9.89688 30.4512
RightArm  86.9126 -62.5904 -70.061
RightForeArm  -1.85256 22.5954 -12.0673
RightHand  -0.596454 2.71521 -8.49244
LeftUpLeg  -75.3394 -0.700209 -5.14825
LeftLeg  76.1341 -9.18594 27.4312
LeftFoot  -34.1108 -1.4447 -7.28212
LeftToes  1.2018e-011 -3.94675e-011 -1.33631e-011
85
root  22.6385 28.9004 -6.54367 33.8409 -28.8079 -3.39907
RightUpLeg  -83.8409 1.45855 15.706
RightLeg  77.0944 13.5623 -15.6863
RightFoot  -30.6988 -0.211412 -2.04579
RightToes  -5.82073e-011 -3.18055e-015 -2.98177e-016
Spine  32.5824 -0.117085 6.03952
Spine1  5.10438 -0.446633 0.194803
HEad  -39.4622 6.33025 2.90871
LeftShoulder1  -3.88251e-019 9.70628e-020 -3.87848e-018
LeftArm  116.972 79.7818 71.3496
LeftForeArm  9.31077 -15.1128 -6.45323
LeftHand  0.217062 -2.94972 -3.06354
RightShoulder  6.18444 9.89339 29.8657
RightArm  72.1483 -65.5914 -49.6195
RightForeArm  0.323594 24.7856 -13.4295
RightHand  -0.871449 4.03321 -10.666
LeftUpLeg  -77.8318 -0.396845 -5.68923
LeftLeg  79.9001 -11.0048 29.0177
LeftFoot  -36.6382 -1.92261 -8.72148
LeftToes  1.2018e-011 -3.94675e-011 -1.33631e-011
86
root  22.3751 28.3072 -5.96369 34.6997 -30.3021 -3.69549
RightUpLeg  -84.9406 1.82613 15.9206
RightLeg  80.28 14.4744 -14.7558
RightFoot  -32.6758 -0.258616 -2.151
RightToes  -5.82073e-011 -3.18055e-015 -2.98177e-016
Spine  34.5418 -0.146433 6.27727
Spine1  2.69639 -0.169842 0.0558718
HEad  -39.5369 5.88543 2.49146
LeftShoulder1  -3.88251e-019 9.70628e-020 -3.87848e-018
LeftArm  16.2169 81.4083 -29.7568
LeftForeArm  18.4859 -9.21344 -6.00268
LeftHand  -0.0532799 -5.65619 0.734566
RightShoulder  6.26438 9.99777 30.0805
RightArm  40.5651 -62.1611 -13.4962
RightForeArm  6.66771 22.4462 -11.9728
RightHand  -1.36783 5.54991 -14.348
LeftUpLeg  -78.1069 0.172594 -6.23688
LeftLeg  81.9578 -12.1041 30.5183
LeftFoot  -39.2112 -2.59601 -10.6941
LeftToes  1.2018e-011 -3.94675e-011 -1.33631e-011
87
root  22.049 28.1593 -5.27667 34.6497 -31.8662 -3.70829
RightUpLeg  -83.8431 1.36412 16.1357
RightLeg  82.0295 14.977 -13.1497
RightFoot  -34.8926 -0.363703 -2.52022
RightToes  -5.82073e-011 -3.18055e-015 -2.98177e-016
Spine  35.8653 -0.0113019 6.19635
Spine1  0.56024 0.074287 0.440415
HEad  -38.9598 4.95767 2.16711
LeftShoulder1  -3.88251e-019 9.70628e-020 -3.87848e-018
LeftArm  -15.1398 64.6449 -60.8188
LeftForeArm  26.6123 -2.57695 -4.71888
LeftHand  -0.620012 -5.64226 7.20704
RightShoulder  6.49677 10.1461 31.0142
RightArm  13.5393 -47.2415 13.7337
RightForeArm  15.4043 17.0315 -7.4662
RightHand  -2.03004 7.01632 -18.8254
LeftUpLeg  -76.1949 0.401698 -6.82866
LeftLeg  82.2685 -12.3084 32.0415
LeftFoot  -40.8344 -3.30387 -12.8834
LeftToes  1.2018e-011 -3.94675e-011 -1.33631e-011
88
root  21.6939 28.3933 -4.56823 34.0625 -33.5426 -3.40728
RightUpLeg  -81.4255 0.648841 15.8471
RightLeg  82.1797 15.077 -11.7039
RightFoot  -36.4483 -0.47565 -2.92364
RightToes  -5.82073e-011 -3.18055e-015 -2.98177e-016
Spine  36.3624 0.31344 6.06193
Spine1  -1.24073 0.401368 0.947491
HEad  -38.9994 4.18306 1.51873
LeftShoulder1  -3.88251e-019 9.70628e-020 -3.87848e-018
LeftArm  -21.5452 44.9312 -66.0797
LeftForeArm  24.4765 -0.658323 -3.67035
LeftHand  -0.846485 -3.55951 11.6211
RightShoulder  6.76919 10.3386 32.0592
RightArm  0.936168 -27.5484 28.3067
RightForeArm  16.3308 12.7342 -4.67158
RightHand  -2.38825 7.11359 -21.884
LeftUpLeg  -73.0295 0.596606 -7.53822
LeftLeg  81.0539 -11.5862 33.469
LeftFoot  -41.168 -3.74142 -14.4401
LeftToes  1.2018e-011 -3.94675e-011 -1.33631e-011
89
root  21.2846 28.88 -3.8416 33.7098 -35.0692 -3.18774
RightUpLeg  -78.5861 0.189411 15.2896
RightLeg  81.1001 14.9628 -10.4432
RightFoot  -36.77 -0.546559 -3.22698
RightToes  -5.82073e-011 -3.18055e-015 -2.98177e-016
Spine  36.2989 0.451365 6.77381
Spine1  -3.11929 0.859217 0.300684
HEad  -40.6788 3.79603 1.39606
LeftShoulder1  -3.88251e-019 9.70628e-020 -3.87848e-018
LeftArm  -22.6545 25.8475 -66.9267
LeftForeArm  12.0484 -2.16767 -3.89125
LeftHand  -0.872279 -3.41695 12.2203
RightShoulder  6.44359 10.2523 30.5041
RightArm  0.390797 -10.5695 39.6224
RightForeArm  6.18713 14.2185 -5.76481
RightHand  -2.57095 6.81681 -23.9828
LeftUpLeg  -69.4046 1.38876 -8.29388
LeftLeg  78.9186 -10.227 33.7352
LeftFoot  -41.6255 -3.98954 -15.1526
LeftToes  1.2018e-011 -3.94675e-011 -1.33631e-011
90
root  20.7529 29.5269 -3.04829 33.5829 -36.0223 -2.97999
RightUpLeg  -75.2901 -0.340459 14.981
RightLeg  79.1749 14.745 -9.45337
RightFoot  -37.0659 -0.589705 -3.39485
RightToes  -5.82073e-011 -3.18055e-015 -2.98177e-016
Spine  36.2852 0.144825 8.31547
Spine1  -5.50165 1.38804 -1.95539
HEad  -43.759 3.0838 2.65839
LeftShoulder1  -3.88251e-019 9.70628e-020 -3.87848e-018
LeftArm  -21.1878 7.98517 -67.0733
LeftForeArm  -3.40502 -10.6278 -2.92979
LeftHand  -0.709757 -3.32009 10.1377
RightShoulder  4.71867 8.9901 23.1952
RightArm  3.26587 0.738803 51.4129
RightForeArm  -4.85417 21.3292 -10.77
RightHand  -3.2481 8.40173 -26.7379
LeftUpLeg  -65.3376 2.69463 -9.02491
LeftLeg  76.0623 -8.48996 32.6621
LeftFoot  -42.6437 -4.23717 -15.5294
LeftToes  1.2018e-011 -3.94675e-011 -1.33631e-011
91
root  20.067 30.3911 -2.15541 32.9445 -36.1992 -2.46834
RightUpLeg  -70.6961 -1.39513 14.8413
RightLeg  75.8592 14.2327 -9.41343
RightFoot  -37.9373 -0.564749 -3.17665
RightToes  -5.82073e-011 -3.18055e-015 -2.98177e-016
Spine  36.4589 -0.243587 9.58768
Spine1  -8.24048 1.81178 -4.08118
HEad  -46.6674 1.51789 4.47984
LeftShoulder1  -3.88251e-019 9.70628e-020 -3.87848e-018
LeftArm  -17.6181 -9.25832 -66.671
LeftForeArm  -16.8336 -20.2899 0.307567
LeftHand  -0.752903 -3.0141 10.9363
RightShoulder  2.80916 6.67929 15.3121
RightArm  3.23318 11.2241 58.0988
RightForeArm  -7.25599 31.2754 -16.6272
RightHand  -4.15561 10.5503 -29.5358
LeftUpLeg  -60.3195 3.88917 -9.45647
LeftLeg  72.0627 -6.24325 31.1185
LeftFoot  -42.4411 -4.23154 -15.6164
LeftToes  1.2018e-011 -3.94675e-011 -1.33631e-011
